<svg preserveAspectRatio="none" width="100%" height="100%" overflow="visible" style="display: block;" viewBox="0 0 40 40" fill="none" xmlns="http://www.w3.org/2000/svg">
<g id="logo_instagram">
<path id="Union" d="M29.1165 3.3C33.2661 3.30013 36.63 6.66405 36.6301 10.8137V29.1164C36.63 33.266 33.266 36.63 29.1165 36.6301H10.8137C6.6641 36.63 3.30018 33.266 3.30005 29.1164V10.8137C3.30014 6.66402 6.66407 3.30009 10.8137 3.3H29.1165ZM19.9622 9.37715C13.8348 9.37715 8.85003 13.4224 8.84985 18.3947C8.84985 22.8526 12.8037 26.586 18.1438 27.2922C18.5052 27.3703 18.9974 27.5308 19.1223 27.84C19.2348 28.1212 19.1959 28.5606 19.1594 28.8449C19.1594 28.8449 19.0284 29.6294 19.0002 29.7961C18.9512 30.0775 18.7781 30.8945 19.9631 30.3947C21.1496 29.8947 26.3626 26.6266 28.6936 23.9436C30.3039 22.1771 31.0754 20.3852 31.0754 18.3947H31.0745C31.0743 13.4225 26.0895 9.3772 19.9622 9.37715ZM23.0745 15.9924C23.1921 15.9925 23.2864 16.0887 23.2864 16.2053V21.0549C23.2861 21.1723 23.1909 21.2667 23.0745 21.2668H22.2913C22.2725 21.2668 22.2533 21.2641 22.2356 21.26H22.2327L22.2122 21.2531C22.209 21.2521 22.2045 21.2513 22.2014 21.2492C22.1983 21.2471 22.1938 21.2464 22.1907 21.2443C22.1886 21.2433 22.1869 21.2415 22.1848 21.2404C22.1797 21.2374 22.1753 21.2357 22.1711 21.2326L22.1692 21.2307C22.1484 21.2171 22.1291 21.1988 22.1135 21.177L19.8918 18.177V21.0568C19.8917 21.1743 19.7975 21.2687 19.6799 21.2687H18.8909C18.7735 21.2685 18.6791 21.1732 18.679 21.0568V16.2072C18.679 16.0897 18.7744 15.9946 18.8909 15.9943H19.6936C19.6975 15.9944 19.7005 15.9952 19.7043 15.9953C19.7075 15.9964 19.711 15.9963 19.7141 15.9963C19.7183 15.9973 19.7226 16.0002 19.7268 16.0002C19.7288 16.0011 19.7317 16.0021 19.7336 16.0021C19.7378 16.0032 19.7422 16.005 19.7463 16.0061C19.7495 16.0061 19.7521 16.008 19.7542 16.008C19.758 16.009 19.762 16.0109 19.7659 16.0129C19.768 16.0139 19.7706 16.0158 19.7727 16.0168C19.7766 16.0188 19.7796 16.0207 19.7834 16.0227C19.7855 16.0237 19.7882 16.0255 19.7903 16.0266L19.8079 16.0383C19.812 16.0414 19.8154 16.0449 19.8196 16.048C19.8207 16.049 19.8225 16.05 19.8235 16.051C19.8276 16.0551 19.832 16.0605 19.8362 16.0646C19.837 16.0654 19.8372 16.0656 19.8372 16.0656C19.8423 16.0728 19.8486 16.0799 19.8538 16.0871L22.0725 19.0842V16.2043C22.0725 16.0867 22.1669 15.9916 22.2844 15.9914H23.0735L23.0745 15.9924ZM27.3772 15.9914C27.4937 15.9916 27.5891 16.0877 27.5891 16.2043V16.9924C27.5891 17.11 27.4947 17.2051 27.3772 17.2053H25.2551V18.0236H27.3772C27.4936 18.0238 27.5889 18.1192 27.5891 18.2355V19.0246C27.589 19.1421 27.4947 19.2364 27.3772 19.2365H25.2551V20.0559H27.3772C27.4936 20.056 27.589 20.1514 27.5891 20.2678V21.0568C27.5889 21.1743 27.4946 21.2686 27.3772 21.2687V21.2658H24.2551C24.1375 21.2657 24.0432 21.1706 24.0432 21.0529V16.2043C24.0432 16.0867 24.1375 15.9915 24.2551 15.9914H27.3772ZM13.4954 15.9904C13.6118 15.9906 13.7073 16.0868 13.7073 16.2033V20.0529H15.8293C15.9458 20.0531 16.0412 20.1483 16.0413 20.2648V21.0539C16.041 21.1713 15.9457 21.2657 15.8293 21.2658H12.7063C12.5888 21.2657 12.4946 21.1713 12.4944 21.0539V16.2033C12.4944 16.0857 12.5887 15.9905 12.7063 15.9904H13.4954ZM17.7083 15.9914C17.8255 15.9915 17.9202 16.087 17.9202 16.2043V21.0529C17.9202 21.1702 17.8255 21.2657 17.7083 21.2658H16.9202C16.803 21.2656 16.7083 21.1701 16.7083 21.0529V16.2043C16.7083 16.0871 16.803 15.9916 16.9202 15.9914H17.7083Z" fill="var(--fill-0, #666666)"/>
</g>
</svg>
