<svg width="40" height="40" viewBox="0 0 40 40" fill="none" xmlns="http://www.w3.org/2000/svg">
<path d="M13.0973 3.4499C11.3239 3.53356 10.1129 3.81657 9.05421 4.23257C7.95854 4.65958 7.02986 5.23258 6.10585 6.15992C5.18184 7.08727 4.61284 8.01661 4.18883 9.11396C3.77849 10.175 3.50049 11.387 3.42216 13.1613C3.34382 14.9357 3.32649 15.506 3.33516 20.0321C3.34382 24.5581 3.36382 25.1255 3.44982 26.9035C3.53449 28.6765 3.8165 29.8872 4.2325 30.9462C4.66017 32.0419 5.23251 32.9702 6.16019 33.8945C7.08786 34.8189 8.01654 35.3866 9.11655 35.8112C10.1766 36.2209 11.3889 36.5002 13.1629 36.5779C14.9369 36.6556 15.5079 36.6736 20.0327 36.6649C24.5574 36.6562 25.127 36.6362 26.9047 36.5519C28.6824 36.4676 29.8868 36.1836 30.9461 35.7696C32.0418 35.3409 32.9708 34.7696 33.8945 33.8415C34.8181 32.9135 35.3868 31.9835 35.8105 30.8855C36.2212 29.8255 36.5002 28.6132 36.5772 26.8405C36.6548 25.0615 36.6732 24.4934 36.6645 19.9681C36.6558 15.4427 36.6355 14.8753 36.5512 13.098C36.4668 11.3206 36.1845 10.1136 35.7688 9.05395C35.3405 7.95828 34.7688 7.0306 33.8415 6.10559C32.9141 5.18058 31.9834 4.61224 30.8858 4.18957C29.8251 3.77923 28.6134 3.49956 26.8394 3.4229C25.0654 3.34623 24.4944 3.32656 19.968 3.33523C15.4416 3.3439 14.8749 3.36323 13.0973 3.4499ZM13.2919 33.5795C11.6669 33.5089 10.7846 33.2389 10.1966 33.0129C9.41788 32.7129 8.86321 32.3502 8.27721 31.7699C7.6912 31.1895 7.3312 30.6328 7.02719 29.8558C6.79886 29.2678 6.52386 28.3865 6.44786 26.7615C6.36519 25.0051 6.34785 24.4778 6.33819 20.0281C6.32852 15.5784 6.34552 15.0517 6.42252 13.2947C6.49186 11.671 6.76352 10.7876 6.98919 10.2C7.2892 9.42029 7.65053 8.86662 8.23221 8.28095C8.81388 7.69527 9.36888 7.3346 10.1466 7.0306C10.7339 6.80126 11.6152 6.5286 13.2396 6.45126C14.9973 6.36793 15.5239 6.35126 19.973 6.34159C24.422 6.33193 24.95 6.34859 26.7084 6.42593C28.3321 6.49659 29.2158 6.7656 29.8028 6.9926C30.5818 7.2926 31.1361 7.65294 31.7218 8.23561C32.3075 8.81829 32.6685 9.37129 32.9725 10.1506C33.2021 10.7363 33.4748 11.6173 33.5515 13.2427C33.6351 15.0003 33.6541 15.5274 33.6621 19.9761C33.6701 24.4248 33.6545 24.9531 33.5775 26.7095C33.5065 28.3345 33.2371 29.2172 33.0108 29.8058C32.7108 30.5842 32.3491 31.1392 31.7671 31.7245C31.1851 32.3099 30.6308 32.6705 29.8528 32.9745C29.2661 33.2035 28.3837 33.4769 26.7607 33.5542C25.003 33.6369 24.4764 33.6542 20.0257 33.6639C15.5749 33.6735 15.0499 33.6555 13.2923 33.5795M26.8791 11.0923C26.8797 11.4879 26.9977 11.8744 27.218 12.203C27.4384 12.5315 27.7512 12.7873 28.1169 12.9381C28.4827 13.0888 28.8849 13.1277 29.2728 13.0499C29.6606 12.972 30.0167 12.7808 30.2959 12.5006C30.5751 12.2204 30.7649 11.8636 30.8414 11.4755C30.9178 11.0873 30.8775 10.6852 30.7254 10.3201C30.5733 9.95487 30.3163 9.64298 29.987 9.42384C29.6576 9.20471 29.2707 9.08816 28.8751 9.08895C28.3448 9.09001 27.8366 9.30166 27.4623 9.67734C27.088 10.053 26.8782 10.562 26.8791 11.0923ZM11.4422 20.0167C11.4516 24.7434 15.2903 28.5665 20.016 28.5575C24.7417 28.5485 28.5674 24.7101 28.5584 19.9834C28.5494 15.2567 24.7097 11.4326 19.9833 11.442C15.2569 11.4513 11.4332 15.2907 11.4422 20.0167ZM14.4443 20.0107C14.4421 18.9119 14.7658 17.8371 15.3745 16.9223C15.9831 16.0075 16.8494 15.2936 17.8637 14.8711C18.8781 14.4486 19.9949 14.3364 21.0731 14.5486C22.1512 14.7609 23.1422 15.288 23.9207 16.0635C24.6992 16.8389 25.2303 17.8278 25.4468 18.9051C25.6633 19.9824 25.5555 21.0997 25.137 22.1157C24.7185 23.1317 24.0081 24.0008 23.0957 24.613C22.1833 25.2253 21.1098 25.5533 20.011 25.5555C19.2814 25.557 18.5586 25.4148 17.884 25.1369C17.2093 24.8591 16.596 24.4511 16.0791 23.9362C15.5621 23.4213 15.1517 22.8096 14.8712 22.1361C14.5907 21.4625 14.4456 20.7403 14.4443 20.0107Z" fill="#666666"/>
</svg>
